<svg xmlns="http://www.w3.org/2000/svg" viewBox="0 0 933 524.81"><defs><style>.cls-1{fill:#f76908;}.cls-2{fill:#8d3b03;}.cls-3{fill:#921e96;}.cls-4{fill:#505;}.cls-5{fill:#8aa3c7;}</style></defs><g id="Layer_2" data-name="Layer 2"><g id="Layer_2-2" data-name="Layer 2"><path class="cls-1" d="M319.28.05H500q1.17,5.82,2.33,11.65,6.72,33.79,13.45,67.58,5.38,27,10.81,54,6.24,31.41,12.44,62.83,5,25.22,10.05,50.44,3.63,18.2,7.28,36.39c-.29.74-.94.75-1.59.88q-19,3.75-38,7.56c-10.6,2.12-21.17,4.42-31.8,6.4-12.61,2.34-25.19,4.86-37.75,7.47-2.26-.41-2.33,1.69-3,2.84-5.82,10.06-11.52,20.2-17.28,30.29Q412.83,363.2,398.61,388q-13.19,23.13-26.34,46.28c-6.68,11.71-13.43,23.38-20.11,35.09q-9.3,16.31-18.52,32.65l-12.9,22.75H137.56c3.51-13.36,7-26.72,10.55-40.07,5.54-20.77,11.17-41.51,16.71-62.29,3.69-13.82,7.24-27.69,11-41.51,3.45-12.88,7.06-25.71,10.52-38.58,3.59-13.35,7.06-26.72,10.62-40.07,3-11.15,6-22.3,9-33.45q5.49-20.49,10.94-41,3.55-13.35,7.08-26.71c2.08-7.89,4-15.83,6.29-23.65.68-2.3.88-4.78,2.13-6.91.9.52,1.83,1,2.71,1.57,7,4.48,14,9,21,13.44,9.63,6.07,19.34,12,28.95,18.14,15.33,9.74,30.58,19.61,45.92,29.35q26.28,16.68,52.65,33.23c17.07,10.77,34,21.83,51.26,32.25,2.95,1.77,5.79,3.81,9.14,4.86l.59.17c.09-.31-.14-.37-.35-.44a4.71,4.71,0,0,0-.56-2.32q-3-7-5.86-14.1c-4.39-10.68-8.73-21.38-13.16-32-6.15-14.85-12.37-29.66-18.53-44.5-5.93-14.31-11.79-28.66-17.73-43-5.46-13.13-11-26.21-16.47-39.34-5-12.07-9.93-24.19-14.93-36.27-4.85-11.71-9.8-23.38-14.66-35.09q-8.1-19.56-16.11-39.17C323.87,11.58,321.19,6,319.28.05Z"/><path class="cls-2" d="M232.36,170.55c-1.25,2.13-1.45,4.61-2.13,6.91-2.28,7.82-4.21,15.76-6.29,23.65q-3.52,13.35-7.08,26.71-5.46,20.49-10.94,41c-3,11.15-6,22.3-9,33.45-3.56,13.35-7,26.72-10.62,40.07-3.46,12.87-7.07,25.7-10.52,38.58-3.71,13.82-7.26,27.69-11,41.51-5.54,20.78-11.17,41.52-16.71,62.29-3.57,13.35-7,26.71-10.55,40.07q-67.66,0-135.32,0c-1.82,0-2.23-.41-2.23-2.23Q.09,315,.05,107.42a4.22,4.22,0,0,1,2.14.25c4.93,1.3,9.86,2.55,14.78,3.87q32,8.52,64,17.07,28.93,7.71,57.86,15.43,31.16,8.33,62.29,16.7c9.91,2.64,19.85,5.19,29.79,7.78A2,2,0,0,1,232.36,170.55Z"/><path class="cls-3" d="M621.5.05q154.64,0,309.27,0c1.82,0,2.23.41,2.23,2.23q-.09,65,0,130c-.87.08-1.14.86-1.55,1.41q-9.49,12.87-18.95,25.76-11.9,16.22-23.76,32.47-15.29,20.6-30.57,41.19c-7.68,10.4-15.24,20.88-22.91,31.28-8.19,11.1-16.46,22.14-24.66,33.23q-13.11,17.73-26.16,35.51c-3.63,4.94-7.2,9.92-10.79,14.88a.64.64,0,0,0-.28.07l-1.55-1.57a9.92,9.92,0,0,0-1-3.5Q764.9,329.37,759,315.81c-10.48-23.84-21.06-47.63-31.42-71.52q-8.64-19.92-17.35-39.79c-7.64-17.4-15.13-34.86-22.73-52.28Q673.77,120.75,660,89.31,642.21,48.75,624.44,8.19C623.29,5.56,621.67,3.05,621.5.05Z"/><path class="cls-2" d="M771.77,346.43l1.54,1.56c-.3,1.18-.56,2.36-.9,3.53q-7.7,26-15.4,52c-4,13.55-7.94,27.12-12,40.66-3.71,12.55-7.49,25.08-11.22,37.62q-6.37,21.46-12.73,42.95H471.36q-.93-8.68-1.85-17.35c-1.71-16.08-3.38-32.16-5.15-48.23-1.49-13.57-3.13-27.13-4.65-40.7-1.73-15.5-3.37-31-5.09-46.5-1.16-10.44-2.41-20.87-3.56-31.3-1.3-11.81-2.52-23.63-3.78-35.45,12.56-2.61,25.14-5.13,37.75-7.47,10.63-2,21.2-4.28,31.8-6.4q19-3.81,38-7.56c.65-.13,1.3-.14,1.59-.88a10,10,0,0,0,1.51.74q17.65,5.2,35.32,10.38,24.3,7.17,48.57,14.37c12.17,3.58,24.35,7.1,36.52,10.68q22.43,6.61,44.83,13.3c11.69,3.47,23.36,7,35.09,10.38C762.72,344.06,767.09,345.84,771.77,346.43Z"/><path class="cls-3" d="M232.36,170.55a2,2,0,0,0-1.49-2c-.17-.51-.59-.73-1-1-9.21-5.85-18.4-11.73-27.62-17.56-14.84-9.36-29.72-18.66-44.55-28-9.71-6.13-19.36-12.35-29.07-18.48-12.1-7.64-24.25-15.2-36.35-22.85-12.51-7.9-25-15.87-37.47-23.79Q28.88,40.41,2.92,24A4.56,4.56,0,0,0,.05,22.88C.05,15.92.12,9,0,2,0,.32.33,0,2,0Q81.56.09,161.12.05H319.28c1.91,5.92,4.59,11.53,7,17.27q8.06,19.59,16.11,39.17C347.2,68.2,352.15,79.87,357,91.58c5,12.08,9.91,24.2,14.93,36.27,5.45,13.13,11,26.21,16.47,39.34,5.94,14.31,11.8,28.66,17.73,43,6.16,14.84,12.38,29.65,18.53,44.5,4.43,10.66,8.77,21.36,13.16,32q2.91,7.07,5.86,14.1a4.71,4.71,0,0,1,.56,2.32l-.24.27c-3.35-1.05-6.19-3.09-9.14-4.86-17.29-10.42-34.19-21.48-51.26-32.25Q357.28,249.66,331,233.05c-15.34-9.74-30.59-19.61-45.92-29.35-9.61-6.11-19.32-12.07-28.95-18.14-7-4.44-14-9-21-13.44C234.19,171.56,233.26,171.07,232.36,170.55Z"/><path class="cls-4" d="M771.77,346.43c-4.68-.59-9-2.37-13.54-3.65-11.73-3.34-23.4-6.91-35.09-10.38q-22.41-6.66-44.83-13.3c-12.17-3.58-24.35-7.1-36.52-10.68q-24.28-7.16-48.57-14.37-17.65-5.21-35.32-10.38a10,10,0,0,1-1.51-.74q-3.64-18.19-7.28-36.39-5-25.22-10.05-50.44-6.22-31.41-12.44-62.83-5.39-27-10.81-54-6.75-33.79-13.45-67.58Q501.2,5.88,500,.05H621.5c.17,3,1.79,5.51,2.94,8.14Q642.14,48.8,660,89.31q13.78,31.44,27.49,62.91c7.6,17.42,15.09,34.88,22.73,52.28q8.74,19.86,17.35,39.79C737.92,268.18,748.5,292,759,315.81q5.94,13.54,11.83,27.12A9.92,9.92,0,0,1,771.77,346.43Z"/><path class="cls-4" d="M721.11,524.77q6.36-21.48,12.73-42.95c3.73-12.54,7.51-25.07,11.22-37.62,4-13.54,8-27.11,12-40.66q7.68-26,15.4-52c.34-1.17.6-2.35.9-3.53a.94.94,0,0,1,.29-.06c5-.7,10.08-1.33,15.11-2.11,18.13-2.81,36.24-5.69,54.37-8.52q37.36-5.83,74.76-11.62c5-.77,10-2.06,15.11-2.06q0,99.48,0,199c0,1.82-.41,2.23-2.23,2.23Q825.94,524.74,721.11,524.77Z"/><path class="cls-3" d="M447.28,305.24c1.26,11.82,2.48,23.64,3.78,35.45,1.15,10.43,2.4,20.86,3.56,31.3,1.72,15.5,3.36,31,5.09,46.5,1.52,13.57,3.16,27.13,4.65,40.7,1.77,16.07,3.44,32.15,5.15,48.23q.92,8.67,1.85,17.35H320.74L333.64,502q9.25-16.32,18.52-32.65c6.68-11.71,13.43-23.38,20.11-35.09q13.2-23.11,26.34-46.28,14.17-24.83,28.39-49.63c5.76-10.09,11.46-20.23,17.28-30.29C445,306.93,445,304.83,447.28,305.24Z"/><path class="cls-2" d="M933,323.62c-5.13,0-10.09,1.29-15.11,2.06q-37.4,5.74-74.76,11.62c-18.13,2.83-36.24,5.71-54.37,8.52-5,.78-10.08,1.41-15.11,2.11,3.59-5,7.16-9.94,10.79-14.88q13.05-17.78,26.16-35.51c8.2-11.09,16.47-22.13,24.66-33.23,7.67-10.4,15.23-20.88,22.91-31.28q15.24-20.62,30.57-41.19l17,18.79c6.33,7,12.6,14,19,20.89,2.7,2.86,5,6.17,8.17,8.54Z"/><path class="cls-4" d="M.05,22.88A4.56,4.56,0,0,1,2.92,24q25.93,16.4,51.88,32.8c12.5,7.92,25,15.89,37.47,23.79,12.1,7.65,24.25,15.21,36.35,22.85,9.71,6.13,19.36,12.35,29.07,18.48,14.83,9.37,29.71,18.67,44.55,28,9.22,5.83,18.41,11.71,27.62,17.56.42.26.84.48,1,1-9.94-2.59-19.88-5.14-29.79-7.78q-31.15-8.31-62.29-16.7-28.92-7.74-57.86-15.43-32-8.54-64-17.07c-4.92-1.32-9.85-2.57-14.78-3.87a4.22,4.22,0,0,0-2.14-.25Z"/><path class="cls-1" d="M933,240.06c-3.22-2.37-5.47-5.68-8.17-8.54-6.45-6.87-12.72-13.91-19-20.89l-17-18.79q11.88-16.23,23.76-32.47,9.45-12.9,18.95-25.76c.41-.55.68-1.33,1.55-1.41Z"/><path class="cls-5" d="M444.24,303.12c.21.07.44.13.35.44l-.59-.17Z"/></g></g></svg>